<?xml version="1.0" encoding="utf-8"?>
<!-- Generator: Adobe Illustrator 24.0.1, SVG Export Plug-In . SVG Version: 6.00 Build 0)  -->
<svg version="1.1" id="Layer_1" xmlns="http://www.w3.org/2000/svg" xmlns:xlink="http://www.w3.org/1999/xlink" x="0px" y="0px"
	 viewBox="0 0 200 100" style="enable-background:new 0 0 200 100;" xml:space="preserve">
<style type="text/css">
	.st0{fill:#85A2A6;}
</style>
<path id="CA" class="st0" d="M131.8,97.72l-9.3,1.14l-4.74,0.52l-0.44-0.76l-1.13-4.28l-0.52-1.42l-1.69-1.6l-0.64-0.95l-2.28-1.45
	l-1.89-1.79l-1.25,0.23l-1.55,0.02l-0.26-0.42l0.61-0.45l-0.66-1.39l-0.94-0.78l-2.28,0.21l-2.03-0.49l-0.78-0.92l-1.76-1.87
	l-1.69-1.06l-1.32,0.35l-2.03-0.49l-2.27-0.28l-1.97,0.28l-1.42-0.94l0-0.93l-0.03-3.45l0.14-0.96l-0.29-1.09l-0.85-0.26l-0.58-1.26
	l-1-1l-2.25-2.23l-0.96-1.26l-1.25-1.96l-1.37-2.22l-1.99-1.62l-0.58-1.26l-0.1-1.87l0.5-0.13l0.76-0.98l0.07-1.77l-0.78-1.11
	l-1.29,0.1l-1.18-0.96l-1.4-1.43l-1.08-3.71l0.05-0.94l0-1.12l-0.06-1.15l-3.35-2.19l-0.25-0.96l0.08-0.26l-0.25-1.49l-1.07-1.67
	l-1.62-1.91l-1.77-1.73l-1.29-1.56l0.01-1.81l-0.42-2.71l0.45-1.63l-0.64-3l-0.93-1.51l-1.23-1.72l-1.73-1.59l-0.02-1.55l0.18-2.09
	l0.72-0.58l0-0.54l1.1-1.56l0.95-6l-0.8-3.4l0.18-2.44l19.05,0.73l12.46-0.07l0.12,15.22l0.03,16.12l8.06,7.23l26.7,23.32
	l10.93,9.84l0.19,1.46l1.9,2.03l1.15,2.33l0.64,0.56l0.39,0.19l0.08,0.66l-0.52,0.62l-1.36,1.14l-0.61,1.19l-0.31,1.98l0.34,2.2
	l-0.88,1.45l-0.92,0.78l0.7,2.84l-0.05,0.94l0.66,0.65l1.4-0.22l0.01,0.78l-0.4,1.08l-1.7,0.74L131.8,97.72z M92.25,84.32l0.77,0.53
	l0.07,0.62l-1.47,0.34l-0.42-0.47l-0.45-0.61L92.25,84.32z M93.12,84.09l0.47-0.42l1.89,0.52l1.56,0.17l-0.34,0.38l-2.07,0.45
	l-0.92-0.54L93.12,84.09z M104.93,90.62l1.1,0.83l0.48,0.36l0.76,0.09l0.09-0.76l-0.67-0.7l-1.47-0.59l-0.48,0.22l0.14,0.55
	L104.93,90.62z M105.34,94.75l1.2,1.24l0.78,0.72l-0.66,0.27l-0.74-0.39c0,0-0.5-0.6-0.55-0.78l-0.26-1L105.34,94.75z">
<title>California</title>
</path>
</svg>
