<?xml version="1.0" encoding="utf-8"?>
<!-- Generator: Adobe Illustrator 24.0.1, SVG Export Plug-In . SVG Version: 6.00 Build 0)  -->
<svg version="1.1" id="Layer_1" xmlns="http://www.w3.org/2000/svg" xmlns:xlink="http://www.w3.org/1999/xlink" x="0px" y="0px"
	 viewBox="0 0 200 100" style="enable-background:new 0 0 200 100;" xml:space="preserve">
<style type="text/css">
	.st0{fill:#85A2A6;}
</style>
<path id="MI" class="st0" d="M99.52,97.62l15.68-1.53l0.16,0.88l8.13-1.2l9.85-1.37l0.08-0.48l0.16-1.2l1.72-2.97l1.64-1.37
	l-0.16-4.1l1.31-1.28l0.9-0.24l0.16-2.89l1.23-2.41l0.9,0.48l0.16,0.48l0.66,0.16l1.56-0.8l-0.33-7.31l-2.63-6.58l-1.89-7.31
	l-1.97-2.57l-2.13-1.45l-1.31,0.88l-3.2,1.45l-1.56,4.01l-2.22,2.97l-0.9,0.48l-1.23-0.48c0,0-2.13-1.2-1.97-1.69
	c0.16-0.48,0.41-4.01,0.41-4.01l2.79-1.04l0.66-2.73l0.49-2.09l1.97-1.28l-0.25-8.03l-1.31-1.85l-1.07-0.64l-0.66-1.69l0.66-0.64
	l1.31,0.24l0.16-1.28l-2.13-1.77l-1.07-2.09h-2.13l-3.69-1.2l-4.52-2.73h-2.22l-0.49,0.48l-0.82-0.4l-2.55-1.85l-2.38,1.45
	l-2.38,1.85l0.25,2.89l0.82,0.24l1.72,0.4l0.41,0.64l-2.13,0.64l-2.13,0.24l-1.23,1.45l-0.25,1.69l0.25,1.28l0.25,4.42l-2.96,1.69
	l-0.49-0.16v-3.37L98.7,39l0.49-1.93l-0.66-0.64l-1.56,0.64l-0.82,3.37l-2.22,0.88l-1.48,1.53l-0.16,0.8l0.49,0.64l-0.49,2.09
	l-1.89,0.4v0.88l0.66,1.93l-0.9,4.9l-1.31,3.21l0.49,3.77l0.41,0.88L89.1,64.3l-0.25,0.64l-0.25,2.17l2.96,4.82l2.38,5.22L95.17,81
	l-0.66,3.77l-0.82,4.82l-1.97,4.18l-0.25,2.17l-2.63,2.49L99.52,97.62z M72.18,39.49l-1.07-0.88l-1.48-8.35l-3.04-1.04l-1.4-1.85
	l-10.35-2.25l-2.3-0.88l-6.65-1.77l-6.4-0.8l-3.2-4.26l0.57-0.4l2.22-0.64l2.96-1.85v-0.8l0.49-0.48l4.93-0.8l1.97-1.53l3.61-1.69
	l0.16-1.04l1.56-2.33l1.48-0.64l1.07-1.45l1.89-1.85l3.61-1.93l3.86-0.4l0.9,0.88l-0.25,0.8l-3.04,0.8l-1.23,2.49L61.18,5.2
	l-0.41,1.93L58.8,9.7l-0.25,2.09l0.66,0.4l0.82-0.88l2.96-2.33l1.07,1.04h1.89l2.63,0.8l1.23,0.88l1.23,2.49l2.22,2.17l3.2-0.16
	l1.23-0.8L79,16.44l1.31,0.4l1.07-0.64h0.9l1.31-0.8l3.28-2.89l2.79-0.88l5.42-0.24l3.69-1.53l2.13-1.04l1.23,0.16v4.58l0.41,0.24
	l2.38,0.64l1.56-0.4l5.01-1.28l0.9-0.88l1.23,0.4v5.62l2.63,2.49l1.07,0.48l1.07,0.8l-1.07,0.24l-0.66-0.24l-3.04-0.4l-1.72,0.48
	l-1.89-0.16l-2.63,1.2h-1.48l-4.76-1.04L96.9,21.9l-1.56,2.09l-5.75,0.48l-1.97,0.64l-0.9,2.49l-1.07,0.88l-0.41-0.16l-1.23-1.28
	l-3.69,1.93h-0.49l-0.9-1.28l-0.66,0.16l-1.56,3.53l-0.82,3.21l-2.63,5.54L72.18,39.49z M118.66,19.89l0.49,2.01l2.63,0.16
	l1.07-0.96c0,0-0.08-1.2-0.33-1.28c-0.25-0.16-1.31-1.53-1.31-1.53l-1.81,0.16l-1.31,0.16l-0.25,0.88L118.66,19.89z">
<title>Michigan</title>
</path>
</svg>
