<?xml version="1.0" encoding="utf-8"?>
<!-- Generator: Adobe Illustrator 24.0.1, SVG Export Plug-In . SVG Version: 6.00 Build 0)  -->
<svg version="1.1" id="Layer_1" xmlns="http://www.w3.org/2000/svg" xmlns:xlink="http://www.w3.org/1999/xlink" x="0px" y="0px"
	 viewBox="0 0 200 100" style="enable-background:new 0 0 200 100;" xml:space="preserve">
<style type="text/css">
	.st0{fill:#85A2A6;}
</style>
<path id="NY" class="st0" d="M133.23,94.93l0.9-2.59l0.16-2.4L131.55,88l-6.13-2.95l-5.54-3.47l-0.53-0.49l-2.62-0.7l-1.75-1.78
	l-1.19-6.15l-3.19-0.99l-2.01-2.73l-39.18,2.27l-32.14,1.21l0.48-6.5l1.76-0.95l1.45-0.89l1.23-1.43l1.94-0.82l2.15-1.5l0.73-1.51
	l2.48-2.36l1.24-0.82l-0.05-1.02l-0.82-3.26l-1.75-0.47l-0.97-6.32l3.14-1.35l4.57-0.83l4.15-0.69l3.24-0.02l6.26,0.74l1.68,1.57
	l1.55,0.44l2.27-0.97l2.74-0.7l5.22,0.28l2.35-1.47l2.26-2.89l1.87-1.64l2.08,0.31l2.04-0.8l0.54-2.24l-1.17-2.3l-0.07-1.53
	l1.4-1.91l0.22-1.48l-1.78-0.27l-1.66-1.06l-0.63-1.21l0.19-2.6l6.56-4.57l0.71-0.7l1.92-2.64l3.54-4.02l3.22-3.25l2.44-2.06
	l2.64-1.42l3.24-0.72l5.63-0.46l3.13,0.68l4.67-0.81l7.65-1.07l-0.04,4.95l1.4,6.79l0.04,5.06l-1.62,4l1.9,4.84l0.49,2.1l-1.37,3.03
	l3.4,2.23l1.14,10.49l-0.87,5.73l-2.22,10.69l-0.02,5.46l0.15,3.66l0.39,7.44l-1.21,8.01l-1.43,2.11l1.67,2.98l0.36,0.96l-2.15,1.5
	l0.1,1.33l1.33-0.1l1.68-1.06l2.66-2.23l1.18-0.43l1.49,0.83l2.24,0.54l8.39-2.67l3.27-2.24l1.51-1.29l3.91,2.21l-3.9,3.05
	L154.56,93l-7.81,4.18l-2.72,0.6l-6.02,1.01l-4.12,0.49l-0.93-0.55L133.23,94.93z">
<title>New York</title>
</path>
</svg>
