<?xml version="1.0" encoding="utf-8"?>
<!-- Generator: Adobe Illustrator 24.0.1, SVG Export Plug-In . SVG Version: 6.00 Build 0)  -->
<svg version="1.1" id="Layer_1" xmlns="http://www.w3.org/2000/svg" xmlns:xlink="http://www.w3.org/1999/xlink" x="0px" y="0px"
	 viewBox="0 0 200 100" style="enable-background:new 0 0 200 100;" xml:space="preserve">
<style type="text/css">
	.st0{fill:#85A2A6;}
</style>
<path id="WA" class="st0" d="M68.86,87.69l-3.16-3.53l-4.03,0.28l-0.93-2.17l-2.5,0.01l-2.85,0.19l-1.47,1.36l-2.84-2.21L50.7,78.8
	l2.48-0.9l0.59-4.15l-2.71-0.44l-0.66-3.54l4.02-1.58l-3.17-1.93L48.2,59.9l-0.1-2.88l-1.81-7.46l-2.44-2.61l0.01-9.41l2.1-0.01
	l2.93,2.19l3.15,1.84l3.46,1.06l4.73,0.95l3.07-0.15l3.08,0.75l3.44,0.16l2.13-0.72l-0.55-2.27l0.98-1.34l1.68-1.71l0.54,0.97
	l0.7,1.63l-2.06,1l0.2,2.05l2.04,1l1.59,2.01l1,1.66l1.37-0.53l-0.11-1.27l-1.24-1l-1.21-2.91l0.34-1.88l-0.91-1.28l-0.6-2.46
	l0.87-3.81l-1.64-2.2l-3.37-3.98l0.1-0.82l1.14-1.08l4.5,0.41l9.78,0.32l8.56-0.18l20.2,0.79l23.03,0.1l14.97-0.15l-0.5,17.69
	l0.53,20.71l0.52,16.13l1.73,8.76l-13.04-0.55l-15.25,0.24l-13.62,3.63l-1.39-1.19l-4.9,3.28l-3.78,0.5l-2.87-1.09l-1.46,1
	l-3.98,0.72l-1.93-0.85l-5.29-0.53l-1.15,0.12l-4.85-0.21l-1.43,2l-5.39,1.06L70.69,96L68.86,87.69z M65.2,33.16l1.84-0.65
	l0.79,1.21l1.05-1.86l2.17-0.53l1.1,1.23l-1.03,1.95l0.75,0.62l-0.2,2.05l-1.23,0.7c0,0-0.83,0.3-0.9,0.02
	c-0.07-0.28,0.82-2.8,0.82-2.8l-1.74-0.18l0.06,1.49l-0.52,0.73l-1.95-1.83L65.2,33.16z">
<title>Washington</title>
</path>
</svg>
