<?xml version="1.0" encoding="utf-8"?>
<!-- Generator: Adobe Illustrator 24.0.1, SVG Export Plug-In . SVG Version: 6.00 Build 0)  -->
<svg version="1.1" id="Layer_1" xmlns="http://www.w3.org/2000/svg" xmlns:xlink="http://www.w3.org/1999/xlink" x="0px" y="0px"
	 viewBox="0 0 66.8 100.24" style="enable-background:new 0 0 66.8 100.24;" xml:space="preserve">
<style type="text/css">
	.st0{fill:#E16A42;}
	.st1{fill:#D95D41;}
	.st2{fill:#EA7743;}
	.st3{fill:#F28444;}
</style>
<g>
	<g>
		<polygon class="st0" points="21.65,21.94 0,0 0.31,27.02 		"/>
		<polygon class="st0" points="44.88,41.62 21.71,41.62 55.05,63.5 		"/>
		<polygon class="st0" points="55.05,63.5 66.8,82.85 66.8,32.87 		"/>
		<polygon class="st0" points="44.88,63.5 44.88,100.24 55.05,63.5 		"/>
		<polygon class="st0" points="21.71,41.62 10.59,63.6 21.65,63.5 		"/>
		<polygon class="st0" points="21.65,63.5 8.57,85.97 21.65,100.24 		"/>
		<polygon class="st0" points="66.8,21.95 66.8,0 44.88,21.94 		"/>
	</g>
	<g>
		<polygon class="st1" points="37.27,51.83 21.71,41.62 21.65,63.5 		"/>
		<polygon class="st1" points="44.88,100.24 66.8,82.85 55.05,63.5 		"/>
		<polygon class="st1" points="10.59,63.6 0.31,27.02 0.31,63.62 		"/>
		<polygon class="st1" points="8.57,85.97 0.31,100.24 21.65,100.24 		"/>
		<polygon class="st1" points="66.8,21.95 44.88,21.94 66.8,32.87 		"/>
		<polygon class="st1" points="44.48,0 21.4,0 21.65,21.94 		"/>
	</g>
	<g>
		<polygon class="st2" points="44.88,21.94 44.88,41.62 66.8,32.87 		"/>
		<polygon class="st2" points="21.65,21.94 0.31,27.02 21.71,41.62 		"/>
		<polygon class="st2" points="55.05,63.5 37.27,51.83 21.65,63.5 		"/>
		<polygon class="st2" points="21.65,63.5 0.31,63.62 0.31,100.24 		"/>
		<polygon class="st2" points="44.48,0 31.01,12.94 44.88,21.94 		"/>
	</g>
	<g>
		<polygon class="st3" points="44.88,21.94 66.8,0 44.48,0 		"/>
		<polygon class="st3" points="21.4,0 0,0 21.65,21.94 		"/>
		<polygon class="st3" points="66.8,32.87 44.88,41.62 55.05,63.5 		"/>
		<polygon class="st3" points="44.88,100.24 66.8,100.24 66.8,82.85 		"/>
		<polygon class="st3" points="21.71,41.62 0.31,27.02 10.59,63.6 		"/>
		<polygon class="st3" points="21.65,21.94 31.01,12.94 44.88,21.94 		"/>
	</g>
</g>
</svg>
