<?xml version="1.0" encoding="utf-8"?>
<!-- Generator: Adobe Illustrator 24.0.1, SVG Export Plug-In . SVG Version: 6.00 Build 0)  -->
<svg version="1.1" id="Layer_1" xmlns="http://www.w3.org/2000/svg" xmlns:xlink="http://www.w3.org/1999/xlink" x="0px" y="0px"
	 viewBox="0 0 24 24" style="enable-background:new 0 0 24 24;" xml:space="preserve">
<path d="M12.41,24c-3.31,0-6.43-1.29-8.77-3.63S0,14.91,0,11.59s1.29-6.43,3.63-8.77C4.85,1.6,6.28,0.67,7.87,0.04
	c0.24-0.09,0.51-0.03,0.67,0.17S8.74,0.68,8.61,0.9C7.48,2.88,7.01,5.23,7.3,7.51c0.3,2.35,1.34,4.48,3.02,6.17
	c2.01,2.01,4.67,3.11,7.5,3.11c1.85,0,3.67-0.48,5.27-1.4c0.22-0.13,0.5-0.1,0.69,0.07s0.26,0.44,0.17,0.67
	c-0.63,1.59-1.56,3.02-2.78,4.24C18.84,22.71,15.72,24,12.41,24z M6.82,1.87c-0.85,0.49-1.63,1.09-2.34,1.8
	C2.37,5.79,1.2,8.6,1.2,11.59s1.17,5.81,3.28,7.92s4.93,3.28,7.92,3.28s5.81-1.17,7.92-3.28c0.71-0.71,1.31-1.49,1.8-2.34
	c-1.36,0.53-2.82,0.81-4.29,0.81c-3.16,0-6.12-1.23-8.35-3.46c-1.87-1.87-3.03-4.24-3.37-6.86C5.86,5.7,6.12,3.7,6.82,1.87
	L6.82,1.87z"/>
</svg>
