<?xml version="1.0" encoding="utf-8"?>
<!-- Generator: Adobe Illustrator 24.0.1, SVG Export Plug-In . SVG Version: 6.00 Build 0)  -->
<svg version="1.1" id="Layer_1" xmlns="http://www.w3.org/2000/svg" xmlns:xlink="http://www.w3.org/1999/xlink" x="0px" y="0px"
	 viewBox="0 0 381.77 100.66" style="enable-background:new 0 0 381.77 100.66;" xml:space="preserve">
<style type="text/css">
	.st0{fill:#E16A42;}
	.st1{fill:#D95D41;}
	.st2{fill:#EA7743;}
	.st3{fill:#F28444;}
</style>
<g>
	<g>
		<polygon class="st0" points="257.62,21.94 235.97,0 236.28,27.02 		"/>
		<polygon class="st0" points="280.86,41.62 257.69,41.62 291.03,63.5 		"/>
		<polygon class="st0" points="291.03,63.5 302.77,82.85 302.77,32.87 		"/>
		<polygon class="st0" points="280.86,63.5 280.86,100.24 291.03,63.5 		"/>
		<polygon class="st0" points="257.69,41.62 246.56,63.6 257.62,63.5 		"/>
		<polygon class="st0" points="257.62,63.5 244.54,85.97 257.62,100.24 		"/>
		<polygon class="st0" points="302.77,21.95 302.77,0 280.86,21.94 		"/>
	</g>
	<g>
		<polygon class="st1" points="273.24,51.83 257.69,41.62 257.62,63.5 		"/>
		<polygon class="st1" points="280.86,100.24 302.77,82.85 291.03,63.5 		"/>
		<polygon class="st1" points="246.56,63.6 236.28,27.02 236.28,63.62 		"/>
		<polygon class="st1" points="244.54,85.97 236.28,100.24 257.62,100.24 		"/>
		<polygon class="st1" points="302.77,21.95 280.86,21.94 302.77,32.87 		"/>
		<polygon class="st1" points="280.45,0 257.38,0 257.62,21.94 		"/>
	</g>
	<g>
		<polygon class="st2" points="280.86,21.94 280.86,41.62 302.77,32.87 		"/>
		<polygon class="st2" points="257.62,21.94 236.28,27.02 257.69,41.62 		"/>
		<polygon class="st2" points="291.03,63.5 273.24,51.83 257.62,63.5 		"/>
		<polygon class="st2" points="257.62,63.5 236.28,63.62 236.28,100.24 		"/>
		<polygon class="st2" points="280.45,0 266.99,12.94 280.86,21.94 		"/>
	</g>
	<g>
		<polygon class="st3" points="280.86,21.94 302.77,0 280.45,0 		"/>
		<polygon class="st3" points="257.38,0 235.97,0 257.62,21.94 		"/>
		<polygon class="st3" points="302.77,32.87 280.86,41.62 291.03,63.5 		"/>
		<polygon class="st3" points="280.86,100.24 302.77,100.24 302.77,82.85 		"/>
		<polygon class="st3" points="257.69,41.62 236.28,27.02 246.56,63.6 		"/>
		<polygon class="st3" points="257.62,21.94 266.99,12.94 280.86,21.94 		"/>
	</g>
</g>
<g>
	<g>
		<polygon class="st0" points="336.62,21.94 314.97,0 315.28,27.02 		"/>
		<polygon class="st0" points="359.86,41.62 336.69,41.62 370.03,63.5 		"/>
		<polygon class="st0" points="370.03,63.5 381.77,82.85 381.77,32.87 		"/>
		<polygon class="st0" points="359.86,63.5 359.86,100.24 370.03,63.5 		"/>
		<polygon class="st0" points="336.69,41.62 325.56,63.6 336.62,63.5 		"/>
		<polygon class="st0" points="336.62,63.5 323.54,85.97 336.62,100.24 		"/>
		<polygon class="st0" points="381.77,21.95 381.77,0 359.86,21.94 		"/>
	</g>
	<g>
		<polygon class="st1" points="352.24,51.83 336.69,41.62 336.62,63.5 		"/>
		<polygon class="st1" points="359.86,100.24 381.77,82.85 370.03,63.5 		"/>
		<polygon class="st1" points="325.56,63.6 315.28,27.02 315.28,63.62 		"/>
		<polygon class="st1" points="323.54,85.97 315.28,100.24 336.62,100.24 		"/>
		<polygon class="st1" points="381.77,21.95 359.86,21.94 381.77,32.87 		"/>
		<polygon class="st1" points="359.45,0 336.38,0 336.62,21.94 		"/>
	</g>
	<g>
		<polygon class="st2" points="359.86,21.94 359.86,41.62 381.77,32.87 		"/>
		<polygon class="st2" points="336.62,21.94 315.28,27.02 336.69,41.62 		"/>
		<polygon class="st2" points="370.03,63.5 352.24,51.83 336.62,63.5 		"/>
		<polygon class="st2" points="336.62,63.5 315.28,63.62 315.28,100.24 		"/>
		<polygon class="st2" points="359.45,0 345.99,12.94 359.86,21.94 		"/>
	</g>
	<g>
		<polygon class="st3" points="359.86,21.94 381.77,0 359.45,0 		"/>
		<polygon class="st3" points="336.38,0 314.97,0 336.62,21.94 		"/>
		<polygon class="st3" points="381.77,32.87 359.86,41.62 370.03,63.5 		"/>
		<polygon class="st3" points="359.86,100.24 381.77,100.24 381.77,82.85 		"/>
		<polygon class="st3" points="336.69,41.62 315.28,27.02 325.56,63.6 		"/>
		<polygon class="st3" points="336.62,21.94 345.99,12.94 359.86,21.94 		"/>
	</g>
</g>
<g>
	<g>
		<polygon class="st0" points="21.65,22.36 0,0.42 0.31,27.44 		"/>
		<polygon class="st0" points="44.88,42.04 21.71,42.04 55.05,63.92 		"/>
		<polygon class="st0" points="55.05,63.92 66.8,83.27 66.8,33.28 		"/>
		<polygon class="st0" points="44.88,63.92 44.88,100.66 55.05,63.92 		"/>
		<polygon class="st0" points="21.71,42.04 10.59,64.01 21.65,63.92 		"/>
		<polygon class="st0" points="21.65,63.92 8.57,86.38 21.65,100.66 		"/>
		<polygon class="st0" points="66.8,22.37 66.8,0.42 44.88,22.36 		"/>
	</g>
	<g>
		<polygon class="st1" points="37.27,52.25 21.71,42.04 21.65,63.92 		"/>
		<polygon class="st1" points="44.88,100.66 66.8,83.27 55.05,63.92 		"/>
		<polygon class="st1" points="10.59,64.01 0.31,27.44 0.31,64.03 		"/>
		<polygon class="st1" points="8.57,86.38 0.31,100.66 21.65,100.66 		"/>
		<polygon class="st1" points="66.8,22.37 44.88,22.36 66.8,33.28 		"/>
		<polygon class="st1" points="44.48,0.42 21.4,0.42 21.65,22.36 		"/>
	</g>
	<g>
		<polygon class="st2" points="44.88,22.36 44.88,42.04 66.8,33.28 		"/>
		<polygon class="st2" points="21.65,22.36 0.31,27.44 21.71,42.04 		"/>
		<polygon class="st2" points="55.05,63.92 37.27,52.25 21.65,63.92 		"/>
		<polygon class="st2" points="21.65,63.92 0.31,64.03 0.31,100.66 		"/>
		<polygon class="st2" points="44.48,0.42 31.01,13.36 44.88,22.36 		"/>
	</g>
	<g>
		<polygon class="st3" points="44.88,22.36 66.8,0.42 44.48,0.42 		"/>
		<polygon class="st3" points="21.4,0.42 0,0.42 21.65,22.36 		"/>
		<polygon class="st3" points="66.8,33.28 44.88,42.04 55.05,63.92 		"/>
		<polygon class="st3" points="44.88,100.66 66.8,100.66 66.8,83.27 		"/>
		<polygon class="st3" points="21.71,42.04 0.31,27.44 10.59,64.01 		"/>
		<polygon class="st3" points="21.65,22.36 31.01,13.36 44.88,22.36 		"/>
	</g>
</g>
<g>
	<g>
		<polygon class="st0" points="179.65,22.36 158,0.42 158.31,27.44 		"/>
		<polygon class="st0" points="202.88,42.04 179.71,42.04 213.05,63.92 		"/>
		<polygon class="st0" points="213.05,63.92 224.8,83.27 224.8,33.28 		"/>
		<polygon class="st0" points="202.88,63.92 202.88,100.66 213.05,63.92 		"/>
		<polygon class="st0" points="179.71,42.04 168.59,64.01 179.65,63.92 		"/>
		<polygon class="st0" points="179.65,63.92 166.57,86.38 179.65,100.66 		"/>
		<polygon class="st0" points="224.8,22.37 224.8,0.42 202.88,22.36 		"/>
	</g>
	<g>
		<polygon class="st1" points="195.27,52.25 179.71,42.04 179.65,63.92 		"/>
		<polygon class="st1" points="202.88,100.66 224.8,83.27 213.05,63.92 		"/>
		<polygon class="st1" points="168.59,64.01 158.31,27.44 158.31,64.03 		"/>
		<polygon class="st1" points="166.57,86.38 158.31,100.66 179.65,100.66 		"/>
		<polygon class="st1" points="224.8,22.37 202.88,22.36 224.8,33.28 		"/>
		<polygon class="st1" points="202.48,0.42 179.4,0.42 179.65,22.36 		"/>
	</g>
	<g>
		<polygon class="st2" points="202.88,22.36 202.88,42.04 224.8,33.28 		"/>
		<polygon class="st2" points="179.65,22.36 158.31,27.44 179.71,42.04 		"/>
		<polygon class="st2" points="213.05,63.92 195.27,52.25 179.65,63.92 		"/>
		<polygon class="st2" points="179.65,63.92 158.31,64.03 158.31,100.66 		"/>
		<polygon class="st2" points="202.48,0.42 189.01,13.36 202.88,22.36 		"/>
	</g>
	<g>
		<polygon class="st3" points="202.88,22.36 224.8,0.42 202.48,0.42 		"/>
		<polygon class="st3" points="179.4,0.42 158,0.42 179.65,22.36 		"/>
		<polygon class="st3" points="224.8,33.28 202.88,42.04 213.05,63.92 		"/>
		<polygon class="st3" points="202.88,100.66 224.8,100.66 224.8,83.27 		"/>
		<polygon class="st3" points="179.71,42.04 158.31,27.44 168.59,64.01 		"/>
		<polygon class="st3" points="179.65,22.36 189.01,13.36 202.88,22.36 		"/>
	</g>
</g>
<g>
	<g>
		<polygon class="st0" points="99.95,22.33 78.3,0.39 78.61,27.41 		"/>
		<polygon class="st0" points="123.18,42.01 100.01,42.01 133.35,63.88 		"/>
		<polygon class="st0" points="133.35,63.88 145.1,83.24 145.1,33.25 		"/>
		<polygon class="st0" points="123.18,63.88 123.18,100.63 133.35,63.88 		"/>
		<polygon class="st0" points="100.01,42.01 88.89,63.98 99.95,63.88 		"/>
		<polygon class="st0" points="99.95,63.88 86.87,86.35 99.95,100.63 		"/>
		<polygon class="st0" points="145.1,22.34 145.1,0.39 123.18,22.33 		"/>
	</g>
	<g>
		<polygon class="st1" points="115.57,52.22 100.01,42.01 99.95,63.88 		"/>
		<polygon class="st1" points="123.18,100.63 145.1,83.24 133.35,63.88 		"/>
		<polygon class="st1" points="88.89,63.98 78.61,27.41 78.61,64 		"/>
		<polygon class="st1" points="86.87,86.35 78.61,100.63 99.95,100.63 		"/>
		<polygon class="st1" points="145.1,22.34 123.18,22.33 145.1,33.25 		"/>
		<polygon class="st1" points="122.78,0.39 99.7,0.39 99.95,22.33 		"/>
	</g>
	<g>
		<polygon class="st2" points="123.18,22.33 123.18,42.01 145.1,33.25 		"/>
		<polygon class="st2" points="99.95,22.33 78.61,27.41 100.01,42.01 		"/>
		<polygon class="st2" points="133.35,63.88 115.57,52.22 99.95,63.88 		"/>
		<polygon class="st2" points="99.95,63.88 78.61,64 78.61,100.63 		"/>
		<polygon class="st2" points="122.78,0.39 109.32,13.33 123.18,22.33 		"/>
	</g>
	<g>
		<polygon class="st3" points="123.18,22.33 145.1,0.39 122.78,0.39 		"/>
		<polygon class="st3" points="99.7,0.39 78.3,0.39 99.95,22.33 		"/>
		<polygon class="st3" points="145.1,33.25 123.18,42.01 133.35,63.88 		"/>
		<polygon class="st3" points="123.18,100.63 145.1,100.63 145.1,83.24 		"/>
		<polygon class="st3" points="100.01,42.01 78.61,27.41 88.89,63.98 		"/>
		<polygon class="st3" points="99.95,22.33 109.32,13.33 123.18,22.33 		"/>
	</g>
</g>
</svg>
