<?xml version="1.0" encoding="utf-8"?>
<!-- Generator: Adobe Illustrator 24.0.1, SVG Export Plug-In . SVG Version: 6.00 Build 0)  -->
<svg version="1.1" id="Layer_1" xmlns="http://www.w3.org/2000/svg" xmlns:xlink="http://www.w3.org/1999/xlink" x="0px" y="0px"
	 viewBox="0 0 24 24" style="enable-background:new 0 0 24 24;" xml:space="preserve">
<style type="text/css">
	.st0{fill:#FFFFFF;}
</style>
<g>
	<path class="st0" d="M12,5.05c-0.35,0-0.63-0.28-0.63-0.63V0.63C11.37,0.28,11.65,0,12,0s0.63,0.28,0.63,0.63v3.79
		C12.63,4.77,12.35,5.05,12,5.05z"/>
	<path class="st0" d="M4.42,12.63H0.63C0.28,12.63,0,12.35,0,12s0.28-0.63,0.63-0.63h3.79c0.35,0,0.63,0.28,0.63,0.63
		S4.77,12.63,4.42,12.63z"/>
	<path class="st0" d="M23.37,12.63h-3.79c-0.35,0-0.63-0.28-0.63-0.63s0.28-0.63,0.63-0.63h3.79c0.35,0,0.63,0.28,0.63,0.63
		S23.72,12.63,23.37,12.63z"/>
	<path class="st0" d="M12,24c-0.35,0-0.63-0.28-0.63-0.63v-3.79c0-0.35,0.28-0.63,0.63-0.63s0.63,0.28,0.63,0.63v3.79
		C12.63,23.72,12.35,24,12,24z"/>
	<path class="st0" d="M12,7.59c1.18,0,2.29,0.46,3.13,1.29c0.83,0.83,1.29,1.94,1.29,3.12s-0.46,2.29-1.29,3.12
		c-0.83,0.83-1.95,1.29-3.13,1.29s-2.29-0.46-3.13-1.29C8.04,14.29,7.58,13.18,7.58,12s0.46-2.29,1.29-3.12S10.82,7.59,12,7.59z
		 M12,6.32c-3.14,0-5.68,2.54-5.68,5.68s2.55,5.68,5.68,5.68s5.68-2.54,5.68-5.68C17.68,8.87,15.14,6.32,12,6.32L12,6.32z"/>
	<path class="st0" d="M6.96,6.96c-0.16,0-0.32-0.06-0.45-0.18L3.83,4.09c-0.25-0.25-0.25-0.65,0-0.89s0.65-0.25,0.89,0L7.4,5.88
		c0.25,0.25,0.25,0.65,0,0.89C7.28,6.9,7.12,6.96,6.96,6.96L6.96,6.96z"/>
	<path class="st0" d="M4.28,20.99c-0.16,0-0.32-0.06-0.45-0.18c-0.25-0.25-0.25-0.65,0-0.89l2.68-2.68c0.25-0.25,0.65-0.25,0.89,0
		s0.25,0.65,0,0.89L4.72,20.8C4.6,20.93,4.44,20.99,4.28,20.99L4.28,20.99z"/>
	<path class="st0" d="M17.04,6.96c-0.16,0-0.32-0.06-0.45-0.18c-0.25-0.25-0.25-0.65,0-0.89l2.68-2.68c0.25-0.25,0.65-0.25,0.89,0
		c0.25,0.25,0.25,0.65,0,0.89l-2.68,2.68C17.37,6.9,17.2,6.96,17.04,6.96L17.04,6.96z"/>
	<path class="st0" d="M19.72,20.99c-0.16,0-0.32-0.06-0.45-0.18l-2.68-2.68c-0.25-0.25-0.25-0.65,0-0.89c0.25-0.25,0.65-0.25,0.89,0
		l2.68,2.68c0.25,0.25,0.25,0.65,0,0.89C20.05,20.93,19.88,20.99,19.72,20.99L19.72,20.99z"/>
</g>
</svg>
